<svg width="792" height="380" viewBox="0 0 792 380" fill="none" xmlns="http://www.w3.org/2000/svg">
<g clip-path="url(#clip0)">
<ellipse cx="603" cy="190" rx="189" ry="187" fill="white"/>
<path d="M33.84 217.73C33.84 243.88 25.38 252.72 0 252.72V301.3C7.78 302.32 14.21 302.66 20.98 302.66C66.66 302.66 93.73 280.92 93.73 224.87V72.33H33.84V217.73ZM132.65 301.99H190.51V125.33H132.65V301.99ZM322.83 125.33V301.99H380.69V125.33H322.83Z" fill="#353C42"/>
<path d="M258.67 0C239.72 0 225.51 12.91 225.51 31.93C225.51 50.95 239.72 63.52 258.67 63.52C277.62 63.52 292.17 50.95 292.17 31.93C292.17 12.91 277.62 0 258.67 0Z" fill="#3DB83A"/>
<path d="M229.91 290.14C229.91 320.04 221.45 326.16 204.87 334.31L214 377.79C267.13 371.34 287.09 338.38 287.09 286.75V79.15H229.9V290.14H229.91Z" fill="#3DB83A"/>
<path d="M351.76 39.55C333.66 39.55 318.98 54.2201 318.98 72.3301C318.98 90.4401 333.65 105.11 351.76 105.11C369.86 105.11 384.54 90.4401 384.54 72.3301C384.54 54.2301 369.87 39.55 351.76 39.55Z" fill="#F35F4C"/>
<path d="M161.58 39.55C143.48 39.55 128.8 54.2201 128.8 72.3301C128.8 90.4401 143.47 105.11 161.58 105.11C179.68 105.11 194.36 90.4401 194.36 72.3301C194.35 54.2301 179.68 39.55 161.58 39.55Z" fill="#FFB94D"/>
<path d="M675.76 157.17C664.84 157.17 655.41 164.49 653.06 179.23H695.14C695.14 166.4 689.56 157.17 675.76 157.17Z" fill="#3DB83A"/>
<path d="M602.89 1.43994C498.54 1.43994 413.94 86.0399 413.94 190.39C413.94 294.74 498.54 379.34 602.89 379.34C707.25 379.34 791.84 294.75 791.84 190.39C791.84 86.0299 707.25 1.43994 602.89 1.43994ZM483.53 250.43C472.45 250.43 463.46 241.45 463.46 230.36C463.46 219.28 472.44 210.29 483.53 210.29C494.62 210.29 503.6 219.27 503.6 230.36C503.59 241.45 494.61 250.43 483.53 250.43ZM593.04 250.29L566.8 204.8L552.01 221.58V250.29H518.22V85.5799H552.01V179.94H552.87L589.87 133.65H627.39L586.53 181.72L630.48 250.29H593.04ZM723.23 202.08H653.45C656.55 219 668.14 226.77 683.7 226.77C692.52 226.77 700.46 224.09 708.92 219.14L720.35 239.97C708.4 248.24 692.8 253.11 678.97 253.11C645.72 253.11 619.97 230.62 619.97 192.01C619.97 154.17 646.97 130.83 674.99 130.83C708.21 130.83 724.67 154.98 724.67 186.81C724.67 193.04 723.89 199.26 723.23 202.08Z" fill="#3DB83A"/>
</g>
<defs>
<clipPath id="clip0">
<rect width="791.85" height="379.35" fill="white"/>
</clipPath>
</defs>
</svg>
