<svg width="1612" height="490" viewBox="0 0 1612 490" xmlns="http://www.w3.org/2000/svg"><g fill="none" fill-rule="evenodd"><path d="M48.4689432,331.025614 C48.4689432,345.545861 51.8910536,356.883588 58.7688675,365.013932 L58.7688675,365.182125 C62.2420978,369.362108 66.1403533,372.28283 70.4241987,373.963306 C74.586817,376.00357 79.5425237,377.011271 85.2810946,377.011271 C96.5362303,377.011271 105.093697,373.346108 110.93889,366.023095 C113.884855,362.64313 116.233448,358.082883 118.043091,352.333579 C119.623426,346.566725 120.412132,339.9355 120.412132,332.365315 C120.412132,324.828769 119.567924,318.165368 117.888271,312.416064 C116.201315,307.007535 113.763628,302.325896 110.611722,298.376998 C107.345893,294.659183 103.622905,291.799888 99.4617476,289.758161 C94.7382713,287.959218 89.6876278,287.071447 84.2601577,287.071447 C72.7800946,287.071447 64.0619653,290.66202 58.091164,297.868029 C54.7172524,302.16794 52.3525931,306.738425 50.9913438,311.567782 C49.3102303,317.208857 48.4689432,323.687976 48.4689432,331.025614 Z M-1.98951966e-13,246.801456 L49.6447003,246.801456 L49.6447003,257.299676 C51.8910536,255.040029 54.9932997,252.730654 58.92953,250.359852 C64.0137666,247.43328 69.6281893,245.172169 75.8297603,243.59261 C82.3555773,242.141755 88.8200505,241.403165 95.2538517,241.403165 C106.504606,241.403165 116.749028,243.471218 125.984199,247.670214 C134.981297,251.822407 143.262716,258.20061 150.799246,266.771183 C157.774918,275.328592 163.012514,284.911253 166.493047,295.508927 C169.890328,306.32891 171.578744,318.28676 171.578744,331.357614 C171.578744,345.11587 169.890328,357.47446 166.493047,368.385121 C163.241823,379.325033 158.125454,389.0832 151.124953,397.643535 L150.96429,397.643535 C143.8893,406.098566 135.553839,412.301262 125.984199,416.253086 C116.201315,420.41698 105.499735,422.501121 93.8940631,422.501121 C88.1540315,422.501121 82.4621987,421.901473 76.8390126,420.650989 C71.538612,419.399042 66.4762839,417.598636 61.643265,415.238073 C57.2411136,412.979888 53.2464606,410.259535 49.6447003,407.101879 L49.6447003,489.296011 L-1.98951966e-13,489.296011 L-1.98951966e-13,246.801456 L-1.98951966e-13,246.801456 Z" fill="#FF2725"/><path d="M206.702479,416.251623 L256.180675,416.251623 L256.180675,246.833632 L206.702479,246.833632 L206.702479,416.251623 Z M201.974621,186.61439 C201.974621,182.658178 202.712208,178.947676 204.175697,175.455095 C205.513577,171.965438 207.714653,168.856046 210.761397,166.156169 C213.445921,163.346601 216.597826,161.196645 220.211271,159.738478 C223.358795,158.255447 227.067177,157.538795 231.353943,157.538795 C235.290174,157.538795 239.064281,158.207183 242.679186,159.568821 C245.926028,160.907059 249.094,163.058478 252.112994,165.986513 C254.93189,168.926249 257.026344,172.02394 258.386132,175.295676 C259.71817,178.876011 260.398795,182.658178 260.398795,186.61439 C260.398795,194.955341 257.636861,201.933191 252.112994,207.562566 C249.094,210.394073 245.869066,212.535253 242.493694,214.003658 C238.792615,215.483764 235.07547,216.212117 231.353943,216.212117 C227.632416,216.212117 223.846625,215.423799 220.044767,213.834002 C216.326161,212.242742 213.174256,210.124962 210.591972,207.403147 C207.875315,204.815888 205.731202,201.656769 204.175697,197.936029 C202.712208,194.564839 201.974621,190.775359 201.974621,186.61439 L201.974621,186.61439 Z" fill="#FF2725"/><path d="M413.745271,331.025614 C413.745271,323.687976 412.884997,317.208857 411.198041,311.567782 C409.749158,306.507341 407.380117,301.936857 404.098221,297.868029 C400.952158,294.378372 397.362082,291.687271 393.309006,289.758161 C389.025161,287.959218 383.946767,287.071447 378.103035,287.071447 C372.580628,287.071447 367.528524,287.959218 362.913129,289.758161 C358.623442,291.799888 354.913599,294.659183 351.768997,298.376998 C348.270937,302.548205 345.850776,307.226918 344.499751,312.416064 C342.698871,318.627535 341.777252,325.26461 341.777252,332.365315 C341.777252,339.46602 342.637527,346.135271 344.324483,352.333579 C345.796735,357.72602 348.159934,362.302354 351.435987,366.023095 C354.227132,369.742372 357.852262,372.46565 362.223741,374.1315 C366.72083,376.06061 371.793382,377.011271 377.441397,377.011271 C382.72135,377.011271 387.500328,376.00357 391.788555,373.963306 C395.84017,372.28283 399.67124,369.305068 403.262776,365.013932 C406.740388,360.623341 409.350423,355.761808 411.031536,350.462971 C412.829495,344.944751 413.745271,338.452469 413.745271,331.025614 Z M462.212754,399.511218 C462.212754,415.290725 460.636801,428.880786 457.467369,440.259465 C453.986836,451.997932 448.860243,461.397773 442.110959,468.505791 C435.129445,475.605033 425.999435,480.83513 414.742839,484.23557 C403.714091,487.615535 390.706274,489.296011 375.738375,489.296011 C364.245167,489.296011 354.053325,488.07624 345.173073,485.575271 C335.382886,482.873932 327.175956,479.157579 320.523069,474.415976 C313.433473,469.456451 307.911066,463.417562 303.961691,456.318319 C300.1277,448.999694 298.160315,441.169174 298.049312,432.819447 L298.049312,425.71728 L304.981167,425.71728 L343.154568,425.549086 L349.732965,425.549086 L350.247085,431.972628 C350.33618,434.009967 350.924789,435.920064 351.929659,437.739482 C353.178445,439.52965 354.627328,440.879588 356.308442,441.787835 L356.308442,441.948716 C357.786536,442.956416 360.421401,443.990443 364.245167,444.998143 C367.746148,445.679694 371.793382,446.016081 376.416079,446.016081 C383.504215,446.016081 389.374237,445.277491 393.994013,443.809086 C398.033943,442.690231 401.460435,440.837174 404.292476,438.238214 L404.292476,438.059782 C406.740388,435.598302 408.666877,432.140821 410.020823,427.751694 L410.187328,427.751694 C411.65812,422.331465 412.392785,416.349614 412.392785,409.820769 L412.392785,407.461667 C408.666877,410.609086 404.787609,413.202196 400.728691,415.238073 C395.680968,417.711253 390.545612,419.510196 385.378123,420.650989 C379.857177,421.901473 374.217924,422.501121 368.463287,422.501121 C356.768521,422.501121 346.06694,420.41698 336.39506,416.253086 C326.828341,412.301262 318.4403,406.098566 311.232397,397.643535 C304.360426,389.520504 299.176871,379.78135 295.696338,368.385121 C292.429047,357.222901 290.803435,344.884786 290.803435,331.357614 C290.803435,318.28676 292.483088,306.32891 295.861382,295.508927 C299.470445,284.589491 304.766464,274.98928 311.730451,266.771183 C318.841956,258.311764 327.048886,251.952575 336.39506,247.670214 C345.519227,243.471218 355.874653,241.403165 367.470101,241.403165 C373.662909,241.403165 380.079183,242.141755 386.717464,243.59261 C392.80511,245.172169 398.420994,247.43328 403.611852,250.359852 C406.87476,252.398654 409.90982,254.653914 412.718492,257.112469 L412.718492,246.801456 L462.212754,246.801456 L462.212754,399.511218 L462.212754,399.511218 Z" fill="#FF2725"/><path d="M497.692242,417.296011 L546.797711,417.296011 L546.797711,247.689965 L497.692242,247.689965 L497.692242,417.296011 Z M493,187.40388 C493,183.443277 493.73203,179.728656 495.187394,176.232198 C496.538388,172.738668 498.714186,169.625824 501.713336,166.922951 C504.409527,164.110264 507.515945,161.957921 511.10072,160.498135 C514.223083,159.013458 517.919474,158.296011 522.171049,158.296011 C526.081975,158.296011 529.807358,158.96514 533.397931,160.328291 C536.630461,161.668014 539.764421,163.821821 542.782415,166.753106 C545.564131,169.696105 547.637009,172.797235 548.980756,176.072602 C550.330301,179.656911 551,183.443277 551,187.40388 C551,195.75409 548.258872,202.739685 542.782415,208.375308 C539.764421,211.209958 536.582625,213.353515 533.226882,214.82355 C529.540638,216.305299 525.851495,217.03446 522.171049,217.03446 C518.480456,217.03446 514.737679,216.245268 510.93402,214.653706 C507.244877,213.06068 504.116715,210.940549 501.549535,208.215713 C498.873638,205.625581 496.747126,202.462955 495.187394,198.738085 C493.73203,195.363154 493,191.569467 493,187.40388 L493,187.40388 Z" fill="#FF2725"/><path d="M705.408269,331.869983 C705.408269,324.536314 704.563488,318.060699 702.87539,312.422676 C701.191685,307.025843 698.811073,302.459292 695.765762,298.730332 C692.600397,295.242564 688.988483,292.552918 684.922701,290.624851 C680.64609,288.826882 675.559836,287.939591 669.699078,287.939591 C664.173597,287.939591 659.077095,288.826882 654.471063,290.624851 C650.169562,292.665474 646.447842,295.523222 643.27662,299.239026 C640.011696,303.185789 637.585696,307.864895 636.010334,313.270499 C634.206573,318.909984 633.298836,325.546392 633.298836,333.208959 C633.298836,340.987005 634.136297,347.639493 635.84782,353.166423 C637.316303,358.555946 639.683739,363.129806 642.948663,366.848533 C646.002758,370.565799 649.544395,373.287604 653.62921,374.952553 C658.123971,376.88062 663.254148,377.830766 669.024132,377.830766 C674.432486,377.830766 679.281557,376.823611 683.558168,374.78445 C687.642983,373.104883 691.411554,370.128732 694.915125,365.839916 C698.408447,361.451701 701.011602,356.592797 702.702628,351.296827 C704.506388,345.781591 705.408269,339.292821 705.408269,331.869983 Z M704.393653,417.051355 L704.393653,407.905098 C700.661684,411.061046 696.667643,413.779927 692.366142,416.036891 C687.300386,418.508734 682.159961,420.306704 676.974149,421.446879 C671.438419,422.696688 665.801667,423.296011 660.056572,423.296011 C648.301382,423.296011 637.532989,421.212997 627.722112,417.051355 C618.117672,413.101669 609.775279,406.902328 602.646618,398.45187 C595.553095,389.896166 590.417062,380.143277 587.257552,369.209282 C583.770087,358.525249 582,346.171882 582,332.201804 C582,319.598475 583.770087,307.654401 587.257552,296.372507 C590.875322,285.458977 596.160693,275.863959 603.163442,267.650307 C610.268678,259.195464 618.495408,252.839714 627.889018,248.559669 C637.134756,244.362945 647.526877,242.296011 659.025851,242.296011 C665.457605,242.296011 671.899608,243.034202 678.331361,244.484272 C684.540573,246.062977 690.124618,248.322864 695.082032,251.247853 C697.913585,252.937653 701.011602,255.196078 704.393653,257.996818 L704.393653,247.691382 L754,247.691382 L754,417.051355 L704.393653,417.051355 L704.393653,417.051355 Z" fill="#FF2725"/><path d="M784,416.296011 L784,247.070909 L831.326556,247.070909 L831.326556,259.881452 C835.379233,256.056842 840.00063,252.631056 845.200981,249.586561 C850.471508,246.768504 856.00081,244.689658 861.765494,243.333952 C867.609127,241.972403 873.866508,241.296011 880.521553,241.296011 C887.053791,241.296011 893.144502,241.972403 898.779069,243.333952 C904.7382,245.032967 909.931241,247.276894 914.327489,250.081803 C918.967892,252.902781 923.077587,256.625129 926.677043,261.222549 C927.377343,262.141449 928.548409,263.888673 930.235563,266.465683 C933.169806,263.527833 935.364275,261.411004 936.820432,260.055298 C941.897975,255.650715 946.852709,252.182562 951.713874,249.586561 C956.642292,246.867845 962.180366,244.802147 968.25792,243.333952 C974.013833,241.972403 980.111855,241.296011 986.530055,241.296011 C992.269886,241.296011 997.575501,241.873062 1002.42497,242.992104 C1007.04052,243.915386 1011.71894,245.471234 1016.4456,247.706396 C1021.29653,250.184065 1025.22932,252.844345 1028.26883,255.650715 C1031.87852,259.044362 1034.86686,262.76817 1037.22946,266.804609 C1038.03063,268.153011 1039.08328,270.402781 1040.46195,273.558303 C1041.22219,275.924945 1041.90641,278.471276 1042.47513,281.16954 C1043.04385,284.644997 1043.42397,287.799058 1043.64473,290.627341 C1043.8845,295.360624 1044,299.356158 1044,302.61102 L1044,416.296011 L994.464355,416.296011 L994.464355,329.488473 C994.464355,319.351358 993.945344,311.060808 992.95849,304.650423 C991.936549,299.024536 990.630979,294.840547 989.057862,292.145205 C987.587085,290.126255 985.506652,288.481293 982.801943,287.26145 C979.541673,286.003624 975.65274,285.381285 971.148304,285.381285 C965.157008,285.381285 960.154028,286.298724 956.104275,288.100001 C952.376163,289.778564 949.324959,292.316129 946.963821,295.690785 C944.26496,299.645414 942.39798,304.868095 941.386273,311.412882 C939.91842,318.613608 939.187418,327.663821 939.187418,338.585434 L939.187418,416.296011 L889.309664,416.296011 L889.309664,329.488473 C889.309664,320.01168 888.743868,312.308408 887.628358,306.337751 C886.833028,300.925154 885.420731,296.517649 883.404627,293.153219 C881.694081,290.678472 879.54932,288.777854 876.96742,287.420687 C873.922064,286.060599 870.038979,285.381285 865.310856,285.381285 C862.261114,285.381285 859.497925,285.731899 857.035909,286.412673 C855.100215,286.849479 852.626503,287.799058 849.600153,289.267252 C847.320888,290.627341 845.249227,292.145205 843.344235,293.833994 C841.304738,295.629428 839.673141,297.607473 838.421665,299.743294 C837.63803,301.094617 836.905566,302.682604 836.228658,304.457585 C835.437713,306.605093 834.939169,308.692705 834.721331,310.723342 C834.254951,313.648044 833.971322,317.084057 833.863134,321.041607 C833.639447,324.077337 833.528335,329.931122 833.528335,338.585434 L833.528335,416.296011 L784,416.296011" fill="#0E0D0C"/><path d="M1196.63426,306.688176 C1194.16229,299.141088 1189.90209,293.874353 1183.87703,290.876275 C1177.84174,287.888429 1171.01314,286.409124 1163.35763,286.409124 C1153.09282,286.409124 1145.16118,288.718711 1139.5262,293.327653 L1139.36842,293.327653 C1135.21486,296.821269 1131.97734,301.260646 1129.71721,306.688176 L1196.63426,306.688176 Z M1125.68638,344.544939 C1128.96043,367.197895 1142.4613,378.51341 1166.2153,378.51341 L1166.89611,378.51341 C1185.03704,378.292684 1198.42104,368.4287 1207.10946,348.928769 L1247.802,370.90639 C1245.2263,375.624964 1242.69005,379.871389 1240.19032,383.588654 C1237.73296,387.29715 1234.62839,391.176671 1230.92043,395.243299 C1224.84131,401.669213 1218.3575,406.90379 1211.50699,410.963108 C1197.42319,419.188454 1181.08803,423.296011 1162.51903,423.296011 C1135.59033,423.296011 1114.14468,415.012194 1098.16745,398.472335 C1082.05143,381.882776 1074,360.03379 1074,332.880062 C1074,306.748108 1082.27204,285.109616 1098.81613,267.968971 C1115.37628,250.840021 1136.61156,242.296011 1162.51903,242.296011 C1189.43019,242.296011 1210.60703,250.189536 1226.03055,265.932734 C1234.34934,274.516212 1240.27067,284.418201 1243.75656,295.615313 C1247.26436,306.815349 1249,318.579625 1249,330.842363 L1249,344.544939 L1125.68638,344.544939 L1125.68638,344.544939 Z" fill="#0E0D0C"/><path d="M507.916942,72.2960109 C497.462497,72.2960109 489,80.752718 489,91.1924675 C489,101.624932 497.462497,110.088924 507.897971,110.088924 C531.881613,110.088924 553.36255,119.57285 568.990224,134.895168 C584.610601,150.252454 594.131092,171.174208 594.148604,194.408297 C594.148604,204.82619 602.611101,213.296011 613.062628,213.296011 C623.521451,213.296011 632,204.82619 632,194.408297 C632,160.654321 617.986315,129.944118 595.546616,107.936864 C573.098161,85.9135823 542.029604,72.2960109 507.916942,72.2960109" fill="#FF2725"/><path d="M686.030624,203.296011 C704.870145,203.296011 705.022254,184.206793 704.998852,183.984604 C704.911098,133.278823 683.874778,87.2258461 650.118381,54.0831977 C616.310793,20.8250698 569.489149,0.296010879 517.99748,0.296010879 C507.49029,0.296010879 499,8.78595493 499,19.2565936 C499,29.7184616 507.49029,38.2142527 517.99748,38.2142527 C559.315427,38.2142527 596.514743,54.6167428 623.524248,81.1405091 C650.462087,107.633578 667.012668,143.93072 667.069708,184.176096 C667.069708,184.407055 666.911749,203.296011 686.030624,203.296011" fill="#FF2725"/><path d="M1256,397.362961 C1256,389.056691 1261.57044,383.296011 1269.56532,383.296011 C1277.42214,383.296011 1282.84856,388.884109 1283,397.362961 C1283,405.402918 1277.58248,411.296011 1269.28918,411.296011 C1261.57044,411.296011 1256,405.402918 1256,397.362961" fill="#0E0D0C"/><path d="M1348.85203,407.852323 C1344.83343,409.798373 1337.22403,411.296011 1328.60228,411.296011 C1305.04301,411.296011 1290,396.839848 1290,374.027978 C1290,352.74745 1304.60203,335.296011 1331.72867,335.296011 C1337.665,335.296011 1344.23423,336.333514 1349,338.130093 L1345.42091,354.983649 C1342.74282,353.768834 1338.72276,352.74745 1332.76299,352.74745 C1320.84344,352.74745 1313.09779,361.229181 1313.24868,373.158996 C1313.24868,386.426721 1322.18688,393.560284 1333.19517,393.560284 C1338.58798,393.560284 1342.74282,392.667856 1346.17101,391.19513 L1348.85203,407.852323" fill="#0E0D0C"/><path d="M1378.34308,373.291632 C1378.34308,385.757372 1383.55433,395.118718 1393.20854,395.118718 C1402.15299,395.118718 1407.66131,386.370369 1407.66131,373.158816 C1407.66131,362.450336 1403.49056,351.489359 1393.20854,351.489359 C1382.51237,351.489359 1378.34308,362.622559 1378.34308,373.291632 Z M1431,372.551657 C1431,399.097363 1412.12622,411.296011 1392.62463,411.296011 C1371.34937,411.296011 1355,397.354699 1355,373.901711 C1355,350.302771 1370.46986,335.296011 1393.96952,335.296011 C1416.12722,335.296011 1431,350.599053 1431,372.551657 L1431,372.551657 Z" fill="#0E0D0C"/><path d="M1435,397.362961 C1435,389.056691 1440.56005,383.296011 1448.56532,383.296011 C1456.43253,383.296011 1461.88123,388.884109 1462,397.362961 C1462,405.402918 1456.581,411.296011 1448.28027,411.296011 C1440.56005,411.296011 1435,405.402918 1435,397.362961" fill="#0E0D0C"/><path d="M1494.67103,367.051645 L1494.97918,367.051645 C1496.62265,363.905194 1498.41285,360.930529 1500.18838,358.237766 L1514.95023,336.280151 L1542.27285,336.280151 L1516.13881,365.855025 L1546,409.296011 L1518.1051,409.296011 L1500.33512,379.29241 L1494.67103,386.473599 L1494.67103,409.296011 L1472,409.296011 L1472,303.296011 L1494.67103,303.296011 L1494.67103,367.051645" fill="#0E0D0C"/><path d="M1591.07676,365.101082 C1591.07676,359.586997 1588.72764,350.361199 1578.32438,350.361199 C1568.81117,350.361199 1564.95919,359.15179 1564.37556,365.101082 L1591.07676,365.101082 Z M1564.52146,380.597081 C1565.1051,390.003116 1574.45781,394.456292 1584.9778,394.456292 C1592.71093,394.456292 1598.94121,393.410038 1605.011,391.339508 L1607.98752,406.664063 C1600.57539,409.7955 1591.52908,411.296011 1581.72404,411.296011 C1557.08014,411.296011 1543,396.991335 1543,374.177415 C1543,355.712631 1554.42461,335.296011 1579.65215,335.296011 C1603.08501,335.296011 1612,353.634775 1612,371.668748 C1612,375.535787 1611.54768,378.964689 1611.25587,380.597081 L1564.52146,380.597081 L1564.52146,380.597081 Z" fill="#0E0D0C"/></g></svg>