<?xml version="1.0" standalone="no"?>
<!DOCTYPE svg PUBLIC "-//W3C//DTD SVG 20010904//EN"
 "http://www.w3.org/TR/2001/REC-SVG-20010904/DTD/svg10.dtd">
<svg version="1.0" xmlns="http://www.w3.org/2000/svg"
 width="600.000000pt" height="400.000000pt" viewBox="0 0 600.000000 400.000000"
 preserveAspectRatio="xMidYMid meet">

<g transform="translate(0.000000,400.000000) scale(0.100000,-0.100000)"
fill="#000000" stroke="none">
<path d="M2900 3384 c-214 -19 -365 -62 -548 -156 -189 -97 -306 -187 -445
-343 -130 -147 -198 -260 -271 -455 -26 -69 -55 -132 -66 -142 -15 -12 -17
-18 -8 -22 7 -3 -3 -4 -22 -1 -158 20 -742 11 -787 -13 -11 -6 -37 -34 -57
-61 l-36 -49 0 -244 0 -244 29 -28 c16 -15 52 -39 81 -52 l52 -24 378 0 378 0
27 -87 c85 -279 264 -540 495 -725 201 -160 450 -267 697 -299 108 -14 347
-18 428 -8 220 29 434 111 645 249 191 125 402 373 497 585 53 116 93 220 93
238 0 7 9 22 20 32 19 17 50 19 448 22 235 2 445 5 466 7 32 4 48 14 87 58
l48 53 1 255 c0 283 1 279 -67 322 l-38 23 -475 5 -475 5 -17 35 c-9 19 -33
79 -53 134 -134 366 -452 682 -836 832 -132 51 -156 58 -269 79 -76 15 -319
26 -400 19z m185 -266 c12 -69 24 -80 25 -21 0 57 9 68 47 58 l25 -6 -7 -142
c-4 -78 -10 -145 -14 -148 -3 -4 -20 -5 -37 -2 -29 4 -32 10 -45 61 l-14 57
-5 -55 c-5 -53 -6 -55 -35 -55 l-30 0 2 95 c1 52 5 119 8 148 6 51 7 52 40 52
31 0 34 -2 40 -42z m-193 15 c21 -25 28 -47 43 -138 7 -47 9 -89 4 -102 -9
-25 -57 -53 -89 -53 -59 0 -83 40 -101 169 l-13 93 27 24 c35 30 106 33 129 7z
m501 -39 c-8 -38 -13 -44 -36 -44 -22 0 -37 -16 -37 -41 0 -5 6 -9 14 -9 40 0
28 -57 -12 -62 -21 -2 -28 -9 -30 -30 -3 -21 1 -27 20 -30 18 -2 22 -9 20 -27
-1 -14 -4 -27 -7 -29 -2 -3 -32 1 -65 8 -42 9 -60 17 -60 28 0 15 42 186 61
249 l10 31 62 -17 c34 -10 61 -22 60 -27z m-810 -76 c11 -15 20 -41 19 -57 0
-20 4 -31 13 -31 13 0 65 -96 65 -119 0 -11 -32 -31 -49 -31 -6 0 -23 25 -38
55 -15 30 -31 55 -35 55 -13 0 -9 -16 18 -70 27 -54 26 -59 -18 -78 -28 -11
-28 -11 -69 76 -23 48 -52 109 -66 135 l-24 48 53 24 c66 31 104 29 131 -7z
m1055 -15 c30 -19 46 -55 38 -87 -7 -29 -30 -33 -59 -11 -13 9 -17 20 -12 34
5 15 2 21 -9 21 -23 0 -20 -42 5 -91 17 -34 18 -46 9 -73 -26 -80 -92 -100
-149 -47 -20 18 -31 39 -31 56 0 59 39 84 73 47 11 -12 13 -22 7 -32 -5 -8
-10 -21 -10 -27 0 -22 20 -14 32 11 9 20 7 31 -11 61 -35 60 -22 126 29 152
27 13 51 10 88 -14z m-1238 -148 c76 -99 88 -124 74 -162 -13 -40 -74 -71
-111 -57 -27 9 -172 177 -173 200 0 12 43 44 57 44 4 -1 31 -30 58 -67 73 -97
104 -130 105 -113 0 8 -34 57 -75 108 l-75 94 23 19 c12 10 29 18 37 18 8 0
44 -38 80 -84z m1422 15 c60 -47 67 -62 43 -86 -11 -11 -19 -12 -34 -5 -16 9
-23 7 -38 -12 -49 -62 -128 -147 -137 -147 -5 0 -20 10 -32 21 l-23 22 76 89
c69 81 74 91 60 105 -14 14 -14 18 0 40 19 28 15 30 85 -27z m-682 -106 c135
-11 192 -31 383 -130 115 -60 267 -202 303 -283 13 -29 24 -55 24 -56 0 -2
-832 -14 -1332 -18 -290 -2 -326 3 -274 36 14 9 32 32 41 51 9 18 67 85 128
148 123 126 155 146 342 211 104 36 215 57 275 51 19 -2 69 -6 110 -10z m-933
-68 c126 -95 141 -130 79 -192 -44 -44 -71 -43 -132 3 -134 102 -152 141 -95
202 42 44 75 41 148 -13z m1786 -4 c20 -19 27 -35 27 -63 0 -33 -7 -43 -57
-88 -82 -72 -130 -96 -165 -82 -31 12 -68 65 -68 96 0 23 117 136 164 159 37
18 61 13 99 -22z m-1933 -212 c26 -25 68 -56 93 -70 26 -13 47 -28 47 -33 0
-7 -18 -46 -25 -55 -2 -2 -25 8 -52 22 -28 14 -91 33 -141 42 -97 19 -108 28
-79 68 12 17 18 17 51 6 48 -15 56 -7 17 16 -33 19 -39 42 -19 74 14 22 11 24
108 -70z m2069 -9 c11 -27 21 -61 21 -75 0 -31 -47 -66 -99 -73 -32 -4 -41 -1
-58 21 -25 31 -32 32 -84 5 -39 -20 -41 -20 -54 -2 -33 44 -28 52 63 94 48 22
105 48 127 59 22 11 45 20 51 20 6 0 21 -22 33 -49z m-3099 -511 l5 -155 78
-3 77 -3 0 -44 c0 -25 5 -45 10 -45 6 0 10 6 10 14 0 8 18 72 41 143 22 70 45
146 50 168 18 73 32 85 98 85 35 0 62 -5 68 -12 5 -7 21 -51 36 -98 14 -47 42
-134 60 -195 38 -120 37 -125 -23 -125 -59 0 -78 10 -85 41 -8 36 -35 51 -83
47 -31 -3 -39 -8 -47 -33 -18 -55 -13 -54 -206 -54 -100 1 -188 3 -195 6 -11
4 -14 45 -14 207 0 112 3 206 7 210 4 4 30 6 58 4 l50 -3 5 -155z m855 150
c25 -6 52 -22 73 -44 27 -30 32 -43 32 -85 0 -85 -56 -131 -159 -131 l-60 0
-3 -77 -3 -78 -65 0 -65 0 -3 200 c-1 110 0 205 2 212 6 16 188 18 251 3z
m410 -45 l0 -50 -42 -3 -43 -3 0 -154 c0 -169 4 -160 -71 -164 l-46 -2 -6 76
c-4 43 -4 94 -1 116 4 21 3 58 0 83 -7 43 -9 45 -44 48 -35 3 -37 5 -40 42 -6
68 -8 67 150 64 l143 -3 0 -50z m299 45 c33 -12 85 -67 102 -107 19 -43 18
-145 -2 -191 -32 -78 -97 -122 -179 -122 -133 0 -216 98 -202 240 8 88 58 160
123 180 40 12 127 12 158 0z m416 1 c66 -13 110 -64 110 -130 0 -85 -56 -131
-160 -131 l-60 0 0 -74 c0 -81 -4 -86 -77 -86 -65 0 -63 -8 -63 214 0 112 3
206 7 209 9 10 190 8 243 -2z m557 -2 c36 -13 83 -58 83 -79 0 -11 -14 -21
-39 -28 -50 -15 -59 -15 -77 3 -22 22 -62 29 -79 15 -24 -20 -3 -35 72 -55 88
-23 100 -30 123 -68 61 -99 -22 -205 -161 -206 -76 -1 -109 10 -151 50 -56 53
-51 81 18 92 48 8 54 6 78 -18 20 -20 34 -25 59 -23 40 4 45 37 7 48 -134 39
-154 49 -176 91 -32 63 0 144 70 175 37 16 134 18 173 3z m411 -46 l3 -53 -40
0 c-47 0 -43 19 -41 -178 l1 -122 -26 -10 c-15 -6 -44 -7 -66 -4 l-39 7 0 153
0 153 -42 3 c-42 3 -43 4 -46 42 -6 68 -8 67 150 64 l143 -3 3 -52z m336 24
c101 -78 111 -250 18 -342 -64 -65 -178 -73 -255 -19 -106 74 -114 251 -16
346 44 42 60 47 150 44 55 -1 72 -6 103 -29z m443 10 c72 -38 85 -147 24 -198
l-31 -25 34 -85 c24 -59 31 -86 23 -91 -7 -3 -39 -5 -71 -5 -66 2 -63 0 -98
94 -16 44 -28 63 -40 63 -16 0 -18 -10 -18 -75 l0 -74 -32 -6 c-37 -6 -79 -2
-96 9 -13 8 -17 350 -5 395 6 23 6 23 142 19 103 -3 144 -8 168 -21z m407 7
c3 -9 6 -29 6 -44 0 -39 -25 -51 -97 -48 -57 3 -58 2 -61 -24 l-3 -28 76 0 76
0 -3 -47 -3 -48 -72 -3 -73 -3 0 -29 0 -30 75 0 74 0 6 -34 c14 -71 15 -71
-134 -74 -90 -2 -138 1 -147 9 -11 9 -14 51 -14 196 0 108 4 192 10 204 10 17
22 19 144 19 113 0 135 -2 140 -16z m-1301 -550 c9 -9 -26 -73 -99 -184 -48
-73 -75 -103 -116 -130 -29 -19 -62 -42 -73 -51 -29 -25 -207 -98 -295 -121
-67 -18 -85 -19 -173 -9 -54 6 -117 11 -140 11 -39 0 -145 32 -197 60 -12 6
-47 20 -77 31 -30 10 -70 31 -88 46 -19 16 -52 42 -75 58 -46 33 -170 157
-184 183 -5 10 -22 32 -39 49 -17 18 -28 35 -26 38 3 2 354 9 780 13 426 5
779 9 785 10 6 1 13 -1 17 -4z m-1657 -65 c8 -17 12 -35 7 -40 -4 -4 -54 -31
-111 -59 -100 -49 -103 -51 -97 -78 5 -23 2 -30 -18 -39 -31 -14 -37 -9 -68
56 l-25 54 135 68 c75 37 142 68 148 68 7 1 20 -13 29 -30z m1802 -58 c76 -39
98 -77 67 -117 -21 -28 -20 -30 35 -61 27 -15 50 -35 50 -43 -1 -16 -34 -60
-45 -60 -4 0 -37 19 -74 43 -36 24 -94 61 -128 83 -35 21 -63 44 -63 49 0 26
85 125 107 125 8 0 30 -9 51 -19z m-1684 -118 l35 -48 -112 -112 c-61 -62
-116 -113 -120 -113 -13 0 -46 43 -47 59 0 8 8 20 18 27 26 20 2 40 -28 22
-19 -12 -24 -10 -46 17 -13 17 -24 32 -24 35 0 6 270 159 282 160 3 0 22 -21
42 -47z m1541 -65 c128 -121 155 -153 155 -180 0 -61 -65 -115 -124 -104 -43
9 -186 153 -186 189 0 38 18 71 48 90 32 20 88 22 107 5z m-1397 -77 c63 -58
66 -83 20 -138 -18 -21 -37 -41 -43 -46 -14 -10 -67 0 -83 17 -11 11 -21 6
-59 -35 l-45 -49 -29 23 c-15 12 -28 26 -28 30 -1 8 61 84 138 169 19 21 40
47 48 58 8 11 17 20 21 20 4 0 31 -22 60 -49z m1280 -162 c39 -71 72 -136 72
-143 0 -13 -40 -36 -64 -36 -7 0 -23 23 -36 50 -13 28 -29 50 -37 50 -19 0
-17 -7 18 -63 30 -49 30 -51 13 -65 -38 -27 -52 -32 -62 -19 -15 18 -152 258
-152 266 0 4 16 15 35 24 l35 17 33 -53 c36 -58 52 -44 18 17 -12 20 -21 41
-21 46 0 10 48 39 65 39 6 0 43 -58 83 -130z m-1105 55 c39 -20 74 -38 76 -40
2 -2 -1 -15 -7 -29 -9 -20 -18 -25 -39 -23 -25 3 -31 -5 -78 -95 -64 -122 -65
-123 -104 -103 -17 9 -31 19 -31 23 0 3 25 56 56 117 31 60 53 111 48 113 -31
11 -35 20 -23 46 7 15 16 27 21 27 5 0 41 -16 81 -36z m793 -50 c21 -6 44 -41
44 -69 0 -21 -61 -31 -75 -11 -13 17 -35 22 -35 8 0 -21 30 -41 81 -56 63 -18
85 -41 95 -104 5 -33 2 -43 -17 -61 -34 -31 -93 -47 -124 -33 -29 13 -64 78
-49 91 5 5 21 11 36 15 23 5 30 2 44 -25 11 -22 19 -28 26 -21 20 20 -17 58
-69 72 -61 17 -81 34 -94 82 -13 48 5 82 54 103 36 16 52 17 83 9z m-570 -30
c43 -21 51 -49 34 -133 -29 -149 -51 -181 -121 -181 -63 0 -101 30 -101 80 0
36 25 144 44 193 22 56 79 72 144 41z m222 -25 c37 -7 52 -16 61 -35 14 -31
14 -74 0 -111 -13 -34 -25 -43 -66 -43 l-32 0 -3 -62 -3 -63 -40 0 -40 0 4
155 c2 85 5 158 8 163 6 10 54 9 111 -4z"/>
<path d="M2820 3081 c0 -39 22 -166 31 -175 18 -20 19 5 4 90 -16 86 -35 132
-35 85z"/>
<path d="M2500 2977 c0 -7 6 -21 13 -32 19 -25 32 -3 15 25 -15 23 -28 26 -28
7z"/>
<path d="M2095 2660 c13 -21 146 -121 157 -118 13 5 -131 128 -150 128 -7 0
-10 -5 -7 -10z"/>
<path d="M3873 2599 c-64 -53 -86 -79 -68 -79 14 0 154 123 150 131 -8 12 0
17 -82 -52z"/>
<path d="M4045 2413 c-23 -13 -26 -18 -13 -21 20 -4 58 14 58 28 0 14 -10 12
-45 -7z"/>
<path d="M1371 1927 c-14 -60 -15 -57 15 -57 25 0 26 2 19 38 -12 63 -21 68
-34 19z"/>
<path d="M1777 2013 c-4 -3 -7 -21 -7 -40 0 -29 3 -33 26 -33 61 0 89 51 38
70 -30 12 -48 13 -57 3z"/>
<path d="M2473 1993 c-22 -34 -24 -139 -4 -177 18 -33 60 -35 80 -4 22 36 26
139 7 176 -21 41 -58 43 -83 5z"/>
<path d="M2896 2005 c-3 -9 -3 -27 0 -41 5 -18 13 -24 34 -24 26 0 60 22 60
38 -1 18 -18 31 -51 37 -29 5 -38 3 -43 -10z"/>
<path d="M4174 2013 c-36 -25 -47 -139 -19 -193 19 -37 57 -40 79 -8 20 28 21
142 3 178 -13 25 -43 36 -63 23z"/>
<path d="M4580 1984 c0 -35 0 -35 41 -32 79 6 76 68 -2 68 -38 0 -39 -1 -39
-36z"/>
<path d="M3945 1360 c3 -6 19 -17 35 -25 35 -18 50 -3 18 19 -25 18 -63 22
-53 6z"/>
<path d="M2185 1222 c-16 -9 -32 -18 -34 -20 -3 -1 0 -6 5 -11 5 -6 22 2 42
20 36 33 32 37 -13 11z"/>
<path d="M3780 1188 c0 -14 148 -158 161 -158 20 0 5 21 -70 93 -80 79 -91 86
-91 65z"/>
<path d="M2410 1093 c-15 -20 -18 -29 -9 -32 13 -4 49 33 49 50 0 17 -19 9
-40 -18z"/>
<path d="M2796 888 c-28 -99 -39 -149 -32 -155 11 -11 17 4 42 98 27 105 28
109 14 109 -5 0 -16 -24 -24 -52z"/>
<path d="M3058 870 c-2 -28 0 -40 9 -40 8 0 13 14 13 40 0 22 -4 40 -9 40 -5
0 -11 -18 -13 -40z"/>
</g>
</svg>
